<svg xmlns="http://www.w3.org/2000/svg" version="1.1" xmlns:xlink="http://www.w3.org/1999/xlink" width="2000" height="571" viewBox="0 0 2000 571"><svg xml:space="preserve" width="2000" height="571" data-version="2" data-id="lg_Ec5JeZHup3qosf055P" viewBox="0 0 497 571" x="0" y="0"><rect width="100%" height="100%" fill="transparent"></rect><path fill="#d90c00" d="M63.534 565.494h369.932c32.412 0 58.688-26.276 58.688-58.689V188.281c0-19.555-9.74-37.843-25.984-48.728L281.192 15.455a58.688 58.688 0 0 0-65.385 0L30.83 139.553A58.688 58.688 0 0 0 4.846 188.28v318.5c0 32.412 26.276 58.688 58.688 58.688Z"></path><path stroke="#fefbfa" stroke-width="6.75" d="M79.145 545.927h341.964c29.962 0 54.252-24.29 54.252-54.252V197.232c0-18.077-9.005-34.983-24.02-45.045L280.348 37.471a54.252 54.252 0 0 0-60.442 0L48.912 152.187a54.252 54.252 0 0 0-24.019 45.045v294.42c0 29.963 24.29 54.252 54.252 54.252Z"></path><path fill="#fefbfa" d="M123.48 466.31h-25.5v-4.34l5.37-.39q1.09-.1 1.66-.79.56-.69.56-1.43v-55.68l-23.22 62.63h-5.03l-22.44-61.69v54.74q0 .74.56 1.43.57.69 1.66.79l5.77.39v4.34H41.02v-4.34l5.77-.39q1.08-.1 1.6-.79.52-.69.52-1.43V405.5q0-.74-.52-1.45-.52-.72-1.6-.77l-5.77-.39v-4.34h22.64v2.71l18.29 49.61 18.3-49.31v-3.01h23.23v4.34l-5.48.39q-1.08.05-1.65.77-.57.71-.57 1.45v53.86q0 .74.57 1.43t1.65.79l5.48.39Z"></path><rect width="82.46" height="67.76" x="-41.23" y="-33.88" fill="none" rx="0" ry="0" transform="translate(82.75 432.93)"></rect><path fill="#fefbfa" d="M196.46 432.48q0 7.35-2.34 13.76t-6.68 11.29q-4.34 4.88-10.41 7.65-6.06 2.76-13.46 2.76-9.91 0-17.33-4.66-7.43-4.66-11.57-12.7-4.14-8.04-4.14-18.2 0-7.4 2.29-13.81t6.63-11.29q4.34-4.88 10.41-7.62t13.61-2.74q7.5 0 13.56 2.76 6.07 2.77 10.41 7.67 4.34 4.91 6.68 11.35 2.34 6.43 2.34 13.78m-11.68.1q0-8.24-2.37-15.02-2.37-6.78-7.08-10.82-4.71-4.05-11.76-4.05-7.3 0-12.06 4.07-4.76 4.07-7.07 10.83-2.32 6.75-2.32 14.79 0 8.09 2.32 14.92 2.31 6.83 7.02 10.95 4.71 4.12 11.86 4.12 7.3 0 12.04-4.12 4.73-4.12 7.07-10.9 2.35-6.78 2.35-14.77"></path><rect width="65.93" height="71.02" x="-32.97" y="-35.51" fill="none" rx="0" ry="0" transform="translate(164 432.93)"></rect><path fill="#fefbfa" d="m269.6 402.89-5.87.39q-1.08.05-1.6.77-.52.71-.52 1.45v38.37q0 12.43-6.63 18.25t-19.31 5.82q-12.48 0-18.57-6.09t-6.09-17.98V405.5q0-.74-.52-1.45-.51-.72-1.6-.77l-5.37-.39v-4.34h25.69v4.34l-5.77.39q-1.08.05-1.6.77-.52.71-.52 1.45v35.76q0 5.92 1.33 10.4 1.33 4.49 5.03 7.01 3.7 2.51 10.7 2.51 7.01 0 10.73-2.64 3.72-2.64 5.13-7.17 1.4-4.54 1.4-10.11V405.5q0-.74-.56-1.45-.57-.72-1.66-.77l-5.77-.39v-4.34h21.95Z"></path><rect width="66.08" height="69.39" x="-33.04" y="-34.7" fill="none" rx="0" ry="0" transform="translate(237.06 433.75)"></rect><path fill="#fefbfa" d="M331.2 414.68h-5.97l-1.43-9.47q-.35-1.73-1.68-1.73h-14.45v55.88q0 .74.52 1.43t1.6.79l6.46.39v4.34h-27.37v-4.34l6.46-.39q1.09-.1 1.61-.79.51-.69.51-1.43v-55.88h-14.54q-1.48 0-1.73 1.73l-1.38 9.47h-5.87v-16.13h57.26Z"></path><rect width="57.26" height="67.76" x="-28.63" y="-33.88" fill="none" rx="0" ry="0" transform="translate(303.07 432.93)"></rect><path fill="#fefbfa" d="M400.39 466.31h-24.02v-4.34l5.82-.49q.39 0 .74-.52.34-.52.34-.96 0-.2-.04-.25l-6.96-18.49h-23.32l-6.71 18.2q-.05.09-.05.29 0 .59.52 1.16.51.57.96.57l5.97.49v4.34h-20.32v-4.34l5.87-1.23 23.52-63.82h7.59l23.43 62.34q.39 1.03.69 1.38.3.34 1.43.54l4.54.79Zm-25.94-29.89-9.92-26.48-9.81 26.48Z"></path><rect width="67.07" height="69.39" x="-33.53" y="-34.7" fill="none" rx="0" ry="0" transform="translate(367.36 432.12)"></rect><path fill="#fefbfa" d="M455.03 466.31h-50.2v-4.44l37.58-58.29h-26.29q-1.28 0-1.73 1.73l-1.48 9.37h-5.96v-16.13h47.54v4.64l-37.63 57.99h28.75q.69 0 1.16-.54t.57-1.28l1.72-11.74h5.97Z"></path><rect width="50.2" height="67.76" x="-25.1" y="-33.88" fill="none" rx="0" ry="0" transform="translate(430.43 432.93)"></rect><path fill="#fefbfa" d="M318.263 262.72H174.525c-2.479 0-4.13-1.653-4.13-4.131V145.003c0-2.478 1.651-4.13 4.13-4.13H317.85c2.478 0 4.13 1.652 4.13 4.13v113.586c.413 2.478-1.652 4.13-3.717 4.13m-139.608-8.26h135.064V149.132H178.655z"></path><path fill="#fefbfa" d="M297.61 248.676H195.178c-2.479 0-4.13-1.652-4.13-4.13v-71.87c0-2.478 1.651-4.13 4.13-4.13H297.61c2.478 0 4.13 1.652 4.13 4.13v71.87c0 2.478-1.652 4.13-4.13 4.13m-98.304-8.261h94.173v-63.608h-94.173zm98.304-77.238h-21.479c-2.478 0-4.13-1.653-4.13-4.13s1.652-4.131 4.13-4.131h21.479c2.478 0 4.13 1.652 4.13 4.13s-1.652 4.13-4.13 4.13"></path><path fill="#fefbfa" d="M339.328 284.197H153.46c-2.479 0-4.13-1.652-4.13-4.13V122.286c0-2.479 1.651-4.13 4.13-4.13h185.868c2.478 0 4.13 1.651 4.13 4.13v157.78c0 2.48-1.652 4.131-4.13 4.131m-181.738-8.26h177.607V126.415H157.59z"></path><path fill="#fefbfa" d="M279.437 312.284H213.35c-2.478 0-4.13-1.652-4.13-4.13v-28.087c0-2.478 1.652-4.13 4.13-4.13h66.087c2.478 0 4.13 1.652 4.13 4.13v28.087c0 2.478-2.065 4.13-4.13 4.13m-61.956-8.26h57.825v-19.827h-57.825z"></path><path fill="#fefbfa" d="M295.545 312.284h-98.303c-2.478 0-4.13-1.652-4.13-4.13s1.652-4.13 4.13-4.13h98.303c2.479 0 4.13 1.651 4.13 4.13s-1.651 4.13-4.13 4.13m-62.782-108.216v6.608l-23.956 11.152v-7.434l16.109-7.435-16.109-7.435v-7.435zm5.37 29.325v-4.13h28.913v4.13z"></path></svg></svg>